# xmcd CD database file
#
# Track frame offsets:
#	150
#	36916
#	59783
#	81126
#	110358
#	128649
#	151178
#	175384
#	200897
#	227192
#	249922
#	278523
#
# Disc length: 4015 seconds
#
# Revision: 0
# Processed by: cddbd v1.4PL0 Copyright (c) Steve Scherf et al.
# Submitted via: CDex 1.50beta10
#
DISCID=a30fad0c
DTITLE=Caesar Frazier - Hail Ceasar! (1-6) - '75 (7-12)
DYEAR=1972
DGENRE=Jazz
TTITLE0=Hicky Burr
TTITLE1=Ellie's love theme
TTITLE2=See-F
TTITLE3=Hail Caesar!
TTITLE4=Make it with you
TTITLE5=Runnin' away
TTITLE6=Mighty mouse
TTITLE7=Summer breeze
TTITLE8=Sweet children
TTITLE9=Funk it down
TTITLE10=Living for the city
TTITLE11=Walking on the side
EXTD=YEAR: 1972
EXTT0=
EXTT1=
EXTT2=
EXTT3=
EXTT4=
EXTT5=
EXTT6=
EXTT7=
EXTT8=
EXTT9=
EXTT10=
EXTT11=
PLAYORDER=
